<svg width="56" height="56" viewBox="0 0 56 56" fill="none" xmlns="http://www.w3.org/2000/svg">
<g filter="url(#filter0_d_6_100)">
<path d="M41.9329 1.73535L28.0005 15.6683C23.3566 11.026 18.7112 6.37916 14.0665 1.73535C8.69343 -3.63759 0.364817 4.69384 5.73338 10.0683C10.3788 14.7091 15.0257 19.3566 19.6659 24.0004C15.0236 28.6464 10.3794 33.2904 5.73338 37.9326C0.364817 43.304 8.69418 51.6332 14.0665 46.2655C18.7104 41.6202 23.3558 36.9742 27.9997 32.3319L41.9322 46.2655C47.3053 51.637 55.6361 43.3048 50.2653 37.9326C45.6199 33.2873 40.976 28.6435 36.3291 23.9989C40.9752 19.3536 45.6192 14.7083 50.2653 10.0638C55.6369 4.69384 47.306 -3.63759 41.9322 1.73835" fill="orange"/>
</g>
<defs>
<filter id="filter0_d_6_100" x="0" y="0" width="56" height="56" filterUnits="userSpaceOnUse" color-interpolation-filters="sRGB">
<feFlood flood-opacity="0" result="BackgroundImageFix"/>
<feColorMatrix in="SourceAlpha" type="matrix" values="0 0 0 0 0 0 0 0 0 0 0 0 0 0 0 0 0 0 127 0" result="hardAlpha"/>
<feOffset dy="4"/>
<feGaussianBlur stdDeviation="2"/>
<feComposite in2="hardAlpha" operator="out"/>
<feColorMatrix type="matrix" values="0 0 0 0 0 0 0 0 0 0 0 0 0 0 0 0 0 0 0.25 0"/>
<feBlend mode="normal" in2="BackgroundImageFix" result="effect1_dropShadow_6_100"/>
<feBlend mode="normal" in="SourceGraphic" in2="effect1_dropShadow_6_100" result="shape"/>
</filter>
</defs>
</svg>
